<svg width="1200" height="630" viewBox="0 0 1200 630" fill="none" xmlns="http://www.w3.org/2000/svg">
  <rect width="1200" height="630" fill="#F7F9FC"/>
  <rect x="0" y="0" width="1200" height="10" fill="#3730A3"/>

  <!-- Brand mark -->
  <g transform="translate(80, 70)">
    <rect width="56" height="56" rx="13" fill="#3730A3"/>
    <path d="M28 11L40.5 16.3V27C40.5 35 35 40.8 28 44C21 40.8 15.5 35 15.5 27V16.3L28 11Z" fill="#EEF2FF"/>
    <path d="M22.5 28L26.5 32L34 23.5" stroke="#3730A3" stroke-width="3.2" stroke-linecap="round" stroke-linejoin="round"/>
    <text x="74" y="38" font-family="Arial, Helvetica, sans-serif" font-size="30" font-weight="700" fill="#0F172A">WallTrust</text>
  </g>

  <!-- Headline -->
  <text x="80" y="270" font-family="Arial, Helvetica, sans-serif" font-size="74" font-weight="800" fill="#0F172A">Build your wall of trust.</text>
  <text x="80" y="340" font-family="Arial, Helvetica, sans-serif" font-size="34" font-weight="500" fill="#64748B">Collect testimonials with a link. Embed them</text>
  <text x="80" y="386" font-family="Arial, Helvetica, sans-serif" font-size="34" font-weight="500" fill="#64748B">anywhere with one line of code.</text>

  <!-- Pricing pills -->
  <g font-family="Arial, Helvetica, sans-serif">
    <rect x="80" y="450" width="470" height="58" rx="29" fill="#EEF2FF"/>
    <text x="108" y="487" font-size="24" font-weight="600" fill="#3730A3">Unlimited testimonials from $7/mo</text>

    <rect x="570" y="450" width="400" height="58" rx="29" fill="#ECFDF5"/>
    <text x="598" y="487" font-size="24" font-weight="600" fill="#059669">Google Rich Snippets included</text>
  </g>

  <!-- Star strip -->
  <text x="80" y="566" font-family="Arial, Helvetica, sans-serif" font-size="34" fill="#F59E0B">★★★★★</text>
  <text x="270" y="565" font-family="Arial, Helvetica, sans-serif" font-size="24" font-weight="500" fill="#64748B">No reviewer account. No branding. Cancel in one click.</text>
</svg>
